<svg width="33" height="33" viewBox="0 0 33 33" fill="none" xmlns="http://www.w3.org/2000/svg">
<g filter="url(#filter0_d)">
<path d="M11.4686 6.60626C8.6221 5.89872 7.12692 4.87024 4.99878 1.64887C7.26109 12.5991 10.6393 17.0542 18.1246 20.6711C14.3438 16.0107 12.1368 12.243 11.4686 6.60626Z" fill="white"/>
<path d="M22.1871 24.5771C16.9258 17.388 13.8833 9.19526 13.8833 0.974876C15.8094 3.83689 17.0892 4.72996 19.6488 5.75698C20.4071 10.267 22.8129 14.4038 25.8865 17.8868C24.7563 20.5327 24.1171 21.5706 22.1871 24.5771Z" fill="white"/>
<path d="M26.6654 15.8458C28.1976 10.8041 28.7669 6.68091 28.9988 0.577148C27.1378 3.99264 25.621 5.42155 22.9922 6.29282C23.304 9.07383 24.8285 13.6569 26.6654 15.8458Z" fill="white"/>
</g>
<defs>
<filter id="filter0_d" x="0.998779" y="0.577148" width="32" height="32" filterUnits="userSpaceOnUse" color-interpolation-filters="sRGB">
<feFlood flood-opacity="0" result="BackgroundImageFix"/>
<feColorMatrix in="SourceAlpha" type="matrix" values="0 0 0 0 0 0 0 0 0 0 0 0 0 0 0 0 0 0 127 0" result="hardAlpha"/>
<feOffset dy="4"/>
<feGaussianBlur stdDeviation="2"/>
<feComposite in2="hardAlpha" operator="out"/>
<feColorMatrix type="matrix" values="0 0 0 0 0 0 0 0 0 0 0 0 0 0 0 0 0 0 0.25 0"/>
<feBlend mode="normal" in2="BackgroundImageFix" result="effect1_dropShadow"/>
<feBlend mode="normal" in="SourceGraphic" in2="effect1_dropShadow" result="shape"/>
</filter>
</defs>
</svg>
