<svg width="21" height="21" viewBox="0 0 21 21" fill="none" xmlns="http://www.w3.org/2000/svg">
<g filter="url(#filter0_b)">
<path d="M6.39033 5.6014C4.01822 5.01179 2.77223 4.15472 0.998779 1.47025C2.88404 10.5954 5.69918 14.308 11.937 17.3221C8.78633 13.4385 6.94709 10.2987 6.39033 5.6014Z" fill="white"/>
<path d="M15.3224 20.5771C10.938 14.5862 8.40255 7.75891 8.40255 0.908588C10.0077 3.2936 11.0741 4.03782 13.2071 4.89368C13.8391 8.65199 15.8439 12.0994 18.4052 15.0018C17.4634 17.2067 16.9307 18.0717 15.3224 20.5771Z" fill="white"/>
<path d="M19.0543 13.301C20.3311 9.0996 20.8056 5.66362 20.9988 0.577148C19.448 3.42339 18.184 4.61415 15.9933 5.34021C16.2531 7.65772 17.5235 11.477 19.0543 13.301Z" fill="white"/>
</g>
<defs>
<filter id="filter0_b" x="-3.00122" y="-3.42285" width="28" height="28" filterUnits="userSpaceOnUse" color-interpolation-filters="sRGB">
<feFlood flood-opacity="0" result="BackgroundImageFix"/>
<feGaussianBlur in="BackgroundImage" stdDeviation="2"/>
<feComposite in2="SourceAlpha" operator="in" result="effect1_backgroundBlur"/>
<feBlend mode="normal" in="SourceGraphic" in2="effect1_backgroundBlur" result="shape"/>
</filter>
</defs>
</svg>
